<?xml version="1.0" ?><svg viewBox="0 0 512 512" xmlns="http://www.w3.org/2000/svg"><g id="QR-code_product_tracking"><polygon points="270.915 474.592 314.542 460.552 314.542 449.369 270.915 463.409 270.915 474.592"/><polygon points="270.915 454.119 314.542 440.079 314.542 428.896 270.915 442.936 270.915 454.119"/><path d="M414.2734,315.878l-.0058-.0074a20.9153,20.9153,0,0,0-9.5069-6.06L266.3,267.9609a35.2992,35.2992,0,0,0-20.584-.0014l-138.4746,41.854a20.9065,20.9065,0,0,0-9.499,6.0571l-.0059.0078-.0068.0064a20.8229,20.8229,0,0,0-5.2764,13.8462V439.8315A20.6914,20.6914,0,0,0,107.2217,459.74l138.4365,42.0435A35.3179,35.3179,0,0,0,256,503.3262a5.4924,5.4924,0,0,0,1.42-.1919c-.0117.0461-.0176.0948-.0293.1407a35.0934,35.0934,0,0,0,8.94-1.4884l138.5576-42.083a20.6894,20.6894,0,0,0,14.6572-19.8721V329.731a20.8172,20.8172,0,0,0-5.2656-13.8462ZM250.5,491.7q-.8232-.19-1.6338-.4385L110.418,449.2144a9.7541,9.7541,0,0,1-6.9649-9.3829V329.731a9.7808,9.7808,0,0,1,.7393-3.7287l143.3139,43.53.5215.1585,2.4722.7509ZM256,360.6162,116.9316,318.3755l131.9746-39.8892a24.373,24.373,0,0,1,14.2061.0025l131.9648,39.8867-43.3237,13.1584h0L286.977,312.0106a3.7741,3.7741,0,0,0-2.1752-.02l-32.6548,9.2719a2.0136,2.0136,0,0,0-.0308,3.8632l60.6846,18.2393Zm152.5459,79.2153a9.7352,9.7352,0,0,1-6.877,9.3536l-138.5507,42.081q-.8013.2462-1.6182.4351V370.442l60.5923-18.4031v45.0242a3.89,3.89,0,0,0,4.92,3.7514l31.3735-8.6415a3.8866,3.8866,0,0,0,2.857-3.7514v-47.05a9.3641,9.3641,0,0,0-.0767-1.1985v-.0017l47.3794-14.39Z"/><path d="M237.6274,141.8687H198.0928v39.5348h39.5346Zm-10.7993,28.7355h-17.936V152.6678h17.936Z"/><path d="M313.8276,63.6089H274.293v39.5348h39.5346ZM303.0283,92.3445h-17.936V74.4081h17.936Z"/><path d="M198.0928,103.1437h39.5346V63.6089H198.0928Zm10.7993-28.7356h17.936V92.3445h-17.936Z"/><rect height="9.6093" width="9.6089" x="244.7754" y="63.6089"/><rect height="9.6093" width="9.6094" x="198.0625" y="109.3356"/><rect height="9.6092" width="9.6089" x="242.8535" y="132.2593"/><path d="M228.75,118.9449h20.83a4.8046,4.8046,0,0,0,4.8047-4.8046V91.7126h8.8481a4.8046,4.8046,0,0,0,4.8047-4.8046v-13.69h-9.6094v8.8852H249.58a4.8042,4.8042,0,0,0-4.8042,4.8046v22.4276H228.75Z"/><path d="M294.0605,135.1191h19.7676V125.51H298.8652V114.14a4.8046,4.8046,0,0,0-4.8047-4.8047h-19.767v9.6093h14.9624v11.37A4.8045,4.8045,0,0,0,294.0605,135.1191Z"/><path d="M268.5684,161.6359V141.8685H258.959v14.9627H247.6577V166.44h16.106A4.8046,4.8046,0,0,0,268.5684,161.6359Z"/><rect height="9.6092" width="17.9365" x="208.8916" y="125.5099"/><path d="M332.9053,46.4218v17.124h10.8623V46.4218A13.7178,13.7178,0,0,0,330.0654,32.72h-17.187V43.5826h17.187A2.8427,2.8427,0,0,1,332.9053,46.4218Z"/><path d="M179.9023,46.4218a2.8426,2.8426,0,0,1,2.8394-2.8392h17.1875V32.72H182.7417A13.7178,13.7178,0,0,0,169.04,46.4218v17.124h10.8628Z"/><path d="M182.7417,209.532h17.1875V198.6694H182.7417a2.8426,2.8426,0,0,1-2.8394-2.8393V178.7062H169.04V195.83A13.7179,13.7179,0,0,0,182.7417,209.532Z"/><path d="M361.9175,145.9029a30.2786,30.2786,0,0,0-30.2788,30.2786c0,13.1449,18.709,35.5132,26.7143,44.4823a4.7752,4.7752,0,0,0,7.1289,0c8.0049-8.9691,26.7139-31.3374,26.7139-44.4823A30.2785,30.2785,0,0,0,361.9175,145.9029Zm0,44.5889a14.98,14.98,0,1,1,14.98-14.98A14.98,14.98,0,0,1,361.9175,190.4918Z"/><path d="M402.7339,235.3853a65.49,65.49,0,0,0,5.5537-97.6609,65.4606,65.4606,0,0,0-60.2944-17.6924,109.1353,109.1353,0,0,0-12.1036,3.8858,65.3476,65.3476,0,0,0-20.3173,13.8066c-1.3384,1.338-2.5977,2.724-3.7959,4.1443H283.979v-9.6094H274.37l-.0766,49.1442h22.1484a65.8946,65.8946,0,0,0,2.022,19.095s2.1284,7.7055,4.3559,11.9449a65.5911,65.5911,0,0,0,89.8208,29.574l32.0752,38.5242,9.2227-7.6787ZM297.7788,170.6042H285.0923V152.6678h17.9365v2.5987A65.2628,65.2628,0,0,0,297.7788,170.6042ZM361.93,237.642a53.56,53.56,0,1,1,37.8725-15.6873A53.21,53.21,0,0,1,361.93,237.642Z"/></g></svg>